PathFileType	4	(X/Y/Z)	D:\TRACE\spotREDO_2-26-24\spot_justBody_Motion_3_5-platform.trc
DataRate	CameraRate	NumFrames	NumMarkers	Units	OrigDataRate	OrigDataStartFrame	OrigNumFrames
100.00	100.00	      66	5	mm	100.00	4376	      7000
Frame#	Time	Left_Front			Right_Front			Left_Aft			Right_Aft			Post			
		X1	Y1	Z1	X2	Y2	Z2	X3	Y3	Z3	X4	Y4	Z4	X5	Y5	Z5	

4376	43.750	-687.20435	19.63615	-569.19086	727.50806	25.26763	-484.65698	-758.24176	-20.00684	648.98279	811.99231	-12.84818	652.74561	21.95653	662.54907	-950.32819	
4377	43.760	-687.03613	19.63824	-569.27307	727.66864	25.23356	-484.61407	-758.12415	-20.08327	648.94678	811.96350	-12.74276	652.87946	22.12668	662.54999	-950.33356	
4378	43.770	-686.93091	19.63739	-569.25769	727.80096	25.23964	-484.58029	-757.96674	-19.96111	649.05823	812.09998	-12.79018	652.85193	22.17382	662.53607	-950.40344	
4379	43.780	-686.83942	19.70731	-569.18658	727.85211	25.26234	-484.53894	-757.88043	-19.95593	649.05743	812.14685	-12.82868	652.91681	22.38349	662.52783	-950.45172	
4380	43.790	-686.90039	19.78304	-569.11621	727.91156	25.36786	-484.52322	-757.85675	-19.99391	649.09161	812.25983	-12.87751	652.98029	22.48160	662.64093	-950.73169	
4381	43.800	-686.77539	19.83139	-569.12158	728.07019	25.44184	-484.46957	-757.78082	-20.09489	649.09473	812.29303	-12.95262	653.00000	22.61053	662.72314	-950.90131	
4382	43.810	-686.72858	19.87864	-569.18280	727.98700	25.38519	-484.51514	-757.80249	-19.89017	649.22339	812.29120	-13.01827	653.06781	22.65448	662.83350	-950.98480	
4383	43.820	-686.82135	19.94718	-569.04010	728.05591	25.47256	-484.46048	-757.75848	-19.93878	649.19672	812.36865	-13.11305	653.08502	22.68893	663.02106	-950.90692	
4384	43.830	-686.72083	19.97480	-569.09674	728.09674	25.58839	-484.41827	-757.77454	-20.03771	649.22198	812.39606	-13.15293	653.12054	22.63903	663.28540	-950.66113	
4385	43.840	-686.76501	20.13963	-568.98816	728.17169	25.76956	-484.38181	-757.81543	-20.32268	649.12207	812.45068	-13.24278	653.15582	22.53714	663.53619	-950.41656	
4386	43.850	-686.72150	20.26401	-569.01343	728.23523	25.96991	-484.32196	-757.65930	-20.20711	649.21790	812.44269	-13.36715	653.18060	22.29387	663.75909	-950.06055	
4387	43.860	-686.80005	20.33525	-569.00946	727.94708	26.30400	-484.42841	-757.79504	-20.55817	649.11102	812.45172	-13.48262	653.18903	22.15654	663.97101	-949.69263	
4388	43.870	-686.71820	20.44901	-569.02570	727.95349	26.37333	-484.43069	-757.86279	-20.65427	649.11310	812.40167	-13.62760	653.19604	22.28972	664.08142	-949.11066	
4389	43.880	-686.81604	20.66510	-568.98181	728.07550	26.36586	-484.33182	-757.85205	-21.05996	649.00482	812.27051	-13.83966	653.16431	22.50248	664.30615	-948.73590	
4390	43.890	-686.86786	20.92921	-568.92896	728.00635	26.52768	-484.26489	-757.83295	-20.90080	649.22607	812.29846	-13.93024	653.24115	22.48809	664.45050	-948.68732	
4391	43.900	-686.97217	21.12083	-568.88409	727.97284	26.52439	-484.30225	-757.63208	-21.17295	649.28528	812.38855	-14.06003	653.28436	22.48855	664.62518	-948.54919	
4392	43.910	-687.03674	21.31571	-568.78125	727.99561	26.63888	-484.18283	-757.78394	-21.58974	649.18665	812.41608	-14.20187	653.27881	22.45148	664.78601	-948.51239	
4393	43.920	-686.99219	21.44838	-568.77649	728.02594	26.74185	-484.15579	-757.86163	-21.86307	649.22479	812.46167	-14.35599	653.27557	22.46713	664.95697	-948.53442	
4394	43.930	-687.01727	21.58329	-568.75903	728.02295	26.80129	-484.08655	-757.89069	-22.05400	649.25214	812.40710	-14.53018	653.33453	22.40914	665.25354	-948.51465	
4395	43.940	-686.97766	21.70082	-568.67389	727.90253	27.02304	-484.01447	-757.99622	-22.21727	649.27948	812.65906	-14.44564	653.56445	22.29864	665.70416	-948.52026	
4396	43.950	-687.10785	21.87434	-568.62708	727.89172	27.09906	-483.83664	-758.02112	-22.35938	649.41742	812.14404	-14.88231	653.44073	22.13945	666.10419	-948.34668	
4397	43.960	-687.27417	22.11589	-568.50317	727.81934	27.20382	-483.73767	-758.13940	-22.45583	649.47949	811.96326	-15.09312	653.50934	21.87470	666.35919	-948.19751	
4398	43.970	-687.37579	22.20322	-568.40875	727.68469	27.25442	-483.61072	-758.39447	-22.67696	649.59802	811.71643	-15.38878	653.51886	21.87476	666.54590	-947.88672	
4399	43.980	-687.47241	22.34046	-568.33087	727.46057	27.55928	-483.64615	-758.56323	-23.01253	649.70190	811.52820	-15.63026	653.49170	21.50332	666.83038	-947.33728	
4400	43.990	-687.52264	22.41784	-568.30322	727.24768	27.72811	-483.63940	-758.82172	-23.20838	649.79681	811.45428	-15.74129	653.61584	21.43202	667.14227	-947.00952	
4401	44.000	-687.66254	22.53521	-568.26111	727.11890	27.88618	-483.58267	-759.12811	-23.37624	649.87183	811.35748	-15.85489	653.66010	20.90974	667.56812	-946.20074	
4402	44.010	-687.90338	22.74929	-568.28729	726.98865	28.06370	-483.54568	-759.25598	-23.48095	649.89777	811.24176	-16.11149	653.70624	21.29624	667.79517	-945.58191	
4403	44.020	-688.10352	22.97878	-568.28687	726.78131	28.33182	-483.55139	-759.31927	-23.60145	649.89435	810.95209	-16.31734	653.74615	20.76962	668.30389	-945.25519	
4404	44.030	-688.21167	23.21674	-568.24286	726.64478	28.38351	-483.37134	-759.43933	-23.64471	649.91620	810.71381	-16.54107	653.76361	21.03877	668.65417	-944.98914	
4405	44.040	-688.29663	23.37521	-568.22009	726.46448	28.56063	-483.38608	-759.60254	-23.91047	650.00281	810.56842	-16.79153	653.88794	20.93060	668.91315	-944.88849	
4406	44.050	-688.62665	23.75002	-568.01660	726.32257	28.68031	-483.37061	-759.77454	-24.14513	650.02643	810.42596	-17.07104	653.88281	20.87549	669.19128	-944.86017	
4407	44.060	-688.78369	23.96941	-567.85437	726.00812	29.06581	-483.49402	-759.96271	-24.33509	650.02612	810.29730	-17.20737	653.89264	20.76931	669.45599	-944.73706	
4408	44.070	-688.90839	24.12356	-567.69287	725.99249	29.46516	-483.09995	-760.13531	-24.64587	650.02057	810.32172	-17.41703	653.87750	20.56749	669.94098	-944.72247	
4409	44.080	-689.06635	24.25411	-567.61145	725.88055	29.57021	-483.15228	-760.22351	-24.85791	650.04303	810.22858	-17.76641	653.90491	20.37172	670.29303	-944.71204	
4410	44.090	-689.18237	24.35663	-567.50708	725.58411	29.64202	-483.24026	-760.28082	-25.09029	650.11523	810.00714	-18.02943	653.95557	20.20965	670.55762	-944.56085	
4411	44.100	-689.33551	24.55585	-567.50708	725.56677	29.67131	-483.03870	-760.40521	-25.37156	650.24115	809.80762	-18.30794	654.13251	20.23550	670.89838	-944.33942	
4412	44.110	-689.66077	24.90566	-567.49689	725.61304	29.73557	-482.89142	-760.57385	-25.70127	650.30157	809.60901	-18.55025	654.27905	19.94235	671.41547	-943.76550	
4413	44.120	-689.96002	25.24915	-567.39587	725.55792	29.93710	-482.73462	-760.82147	-26.40228	650.30267	809.53668	-18.74119	654.28302	20.06145	671.90747	-943.00989	
4414	44.130	-690.17944	25.64315	-567.34375	725.13660	30.56717	-482.90134	-760.71283	-26.20881	650.51215	809.43121	-19.07075	654.39880	19.77110	672.20557	-942.46362	
4415	44.140	-690.27307	25.77844	-567.23059	724.87201	30.60510	-482.87946	-760.87524	-26.54177	650.35388	809.25623	-19.21737	654.35773	19.29838	672.35016	-941.98889	
4416	44.150	-690.34369	25.95661	-567.17200	724.74933	30.65577	-482.80750	-760.93884	-26.61382	650.53510	809.18176	-19.33487	654.36517	19.08765	672.57184	-941.50037	
4417	44.160	-690.44830	26.03344	-567.10254	724.70831	30.88391	-482.73526	-761.16882	-27.00449	650.35773	809.00409	-19.49844	654.35596	19.07460	672.80737	-941.11292	
4418	44.170	-690.57410	26.23878	-567.03467	724.47827	31.15541	-482.58844	-761.48230	-27.31856	650.30402	808.78754	-19.76974	654.32373	18.90564	673.18781	-940.79840	
4419	44.180	-690.68964	26.39526	-567.00708	724.29956	31.11958	-482.35764	-761.72113	-27.42746	650.39325	808.62952	-19.87960	654.29712	18.83061	673.61389	-940.71112	
4420	44.190	-690.91138	26.60215	-566.91412	724.10242	31.25560	-482.34866	-761.88965	-27.41098	650.45520	808.47894	-20.12398	654.27423	18.73127	673.92578	-940.69305	
4421	44.200	-691.06885	26.80927	-566.85571	723.99963	31.33068	-482.29822	-762.02295	-27.70111	650.43158	808.28052	-20.39601	654.35309	18.62979	674.21655	-940.79401	
4422	44.210	-691.12158	26.93542	-566.78943	723.78564	31.60359	-482.36069	-762.20966	-28.04106	650.29736	808.11127	-20.63641	654.52710	18.39528	674.56897	-940.85474	
4423	44.220	-691.32526	27.18790	-566.85132	723.58087	31.86729	-482.24973	-762.28705	-28.15150	650.54413	808.08899	-20.77332	654.55249	18.20505	674.90955	-940.85651	
4424	44.230	-691.47919	27.42530	-566.77667	723.50696	32.10528	-482.20004	-762.48340	-28.32858	650.68060	808.05450	-21.20230	654.55450	18.15816	675.16443	-940.79791	
4425	44.240	-691.68335	27.77434	-566.78552	723.39404	32.26036	-482.20786	-762.62775	-28.44797	650.82202	807.89117	-21.38982	654.62634	18.05315	675.45135	-940.30402	
4426	44.250	-691.75397	27.87968	-566.73511	723.31989	32.38777	-482.13135	-762.74127	-28.68114	650.87769	807.69452	-21.55359	654.62195	17.88984	675.68420	-939.85748	
4427	44.260	-691.82831	27.98862	-566.67310	723.27435	32.42068	-482.00687	-762.78204	-28.93088	650.92444	807.60986	-21.59270	654.63721	17.62607	676.00146	-939.41968	
4428	44.270	-691.87726	28.15648	-566.64771	723.24640	32.50455	-481.94553	-762.85962	-29.01308	650.88916	807.59521	-21.72089	654.67383	17.79314	676.24371	-938.61554	
4429	44.280	-691.89349	28.28873	-566.54791	723.24829	32.56399	-481.90366	-762.87128	-29.26622	650.88861	807.54193	-21.84694	654.70752	18.09821	676.38879	-937.96198	
4430	44.290	-691.86682	28.39593	-566.50531	723.28326	32.67065	-481.87350	-762.86682	-29.34288	650.92261	807.64178	-22.02707	654.78107	17.53402	676.71893	-937.57880	
4431	44.300	-691.80316	28.46106	-566.44464	723.25439	32.76460	-481.86578	-762.87207	-29.42748	650.96008	807.73407	-22.19216	654.86938	19.07143	676.78296	-936.97375	
4432	44.310	-691.85406	28.52704	-566.39624	723.21228	32.80383	-481.77530	-763.06897	-29.73298	650.91455	807.77161	-22.25883	654.93665	17.43487	677.04517	-937.31219	
4433	44.320	-691.86371	28.62299	-566.34131	722.97479	33.13375	-481.98441	-763.10315	-29.82748	650.89801	807.78363	-22.31571	655.00702	17.23648	677.26428	-937.43427	
4434	44.330	-691.79578	28.68416	-566.28027	723.04669	33.03668	-481.78894	-763.05237	-29.93728	650.95465	807.72351	-22.35655	655.04602	16.40349	677.59290	-937.72003	
4435	44.340	-691.76434	28.75362	-566.23297	722.93146	33.31756	-481.90152	-763.06573	-30.02911	651.01459	807.61920	-22.47651	655.11426	16.76146	677.77972	-938.02087	
4436	44.350	-691.84650	28.86512	-566.22223	722.93506	33.44596	-481.89435	-762.99329	-30.12093	651.04523	807.63904	-22.50438	655.07819	16.97423	677.82397	-938.26306	
4437	44.360	-691.70795	28.84446	-566.26941	722.93323	33.47040	-481.91672	-763.01245	-30.19411	651.11841	807.50409	-22.63582	655.10144	16.92854	677.96045	-938.26068	
4438	44.370	-691.68622	28.90278	-566.25519	722.94696	33.49483	-481.83578	-762.92145	-30.22129	651.11597	807.48663	-22.73632	655.07239	17.21584	678.01233	-938.24622	
4439	44.380	-691.60547	28.89196	-566.21606	722.94647	33.50846	-481.84583	-762.88226	-30.22173	651.14716	807.45697	-22.79597	655.05011	17.24205	678.05023	-937.99786	
4440	44.390	-691.70154	28.98465	-566.22595	722.91815	33.56749	-481.81439	-762.88605	-30.29855	651.14117	807.51520	-22.76127	655.08008	17.39723	678.08472	-937.66278	
4441	44.400	-691.64355	28.99485	-566.21216	722.89606	33.55011	-481.84076	-762.97644	-30.34751	651.15662	807.49237	-22.73106	655.07397	17.44414	678.12048	-937.27716	
